# xmcd
#
# Track frame offsets:
#	150
#	15687
#	29587
#	43950
#	57062
#	70000
#	81912
#	98975
#	116087
#	131287
#	146225
#	160950
#	176450
#	193950
#
# Disc length: 2733
#
# Revision: 4
# Processed by: cddbd v1.5.1PL0 Copyright (c) Steve Scherf et al.
# Submitted via: dBpowerAMP V4.0
# Normalized: r2:TSWAP
#
DISCID=c90aab0e
DTITLE=Various Artist - Classic Country - Volume 2
DYEAR=1900
DGENRE=Country
TTITLE0=Dolly Parton - Old Flames (Can't Hold A Candle To You)
TTITLE1=Charley Pride - You Win Again
TTITLE2=Bobby Bare - Cowboys and Daddies
TTITLE3=Skeeter Davis - Put It Off Until Tomorrow
TTITLE4=Leon Everette - Giving Up Easy
TTITLE5=Dottie West - It Was Love While It Lasted
TTITLE6=Tom T. Hall - Mr Bojangles
TTITLE7=Dolly Parton - Cowgirl and The Dandy
TTITLE8=Jerry Reed - Lord, Mr Ford
TTITLE9=Ronnie Milsap - Back On My Mind Again
TTITLE10=Willie Nelson - Sweet Memories
TTITLE11=Ray Stevens - Night Games
TTITLE12=Alabama - Hollywood
TTITLE13=Don Gibson - Singing The Blues
EXTD=Typo's corrected, ripped by shyone
EXTT0=
EXTT1=
EXTT2=
EXTT3=
EXTT4=
EXTT5=
EXTT6=
EXTT7=
EXTT8=
EXTT9=
EXTT10=
EXTT11=
EXTT12=
EXTT13=
PLAYORDER=
